<?xml version="1.0" standalone="no"?>
<!DOCTYPE svg PUBLIC "-//W3C//DTD SVG 20010904//EN"
 "http://www.w3.org/TR/2001/REC-SVG-20010904/DTD/svg10.dtd">
<svg version="1.0" xmlns="http://www.w3.org/2000/svg"
 width="860.000000pt" height="860.000000pt" viewBox="0 0 860.000000 860.000000"
 preserveAspectRatio="xMidYMid meet">
<metadata>
Created by potrace 1.14, written by Peter Selinger 2001-2017
</metadata>
<g transform="translate(0.000000,860.000000) scale(0.100000,-0.100000)"
fill="#000000" stroke="none">
<path d="M4135 8194 c-33 -2 -121 -8 -195 -14 -404 -32 -829 -140 -1230 -313
-92 -40 -333 -160 -354 -176 -6 -4 -36 -22 -66 -38 -313 -172 -705 -492 -965
-787 -33 -38 -65 -73 -71 -80 -6 -6 -41 -49 -78 -96 -37 -47 -75 -94 -84 -105
-9 -11 -48 -67 -87 -125 -288 -429 -468 -830 -585 -1304 -77 -315 -110 -571
-114 -901 -5 -393 31 -686 130 -1070 53 -206 138 -451 208 -600 113 -238 204
-405 311 -570 325 -501 804 -956 1335 -1267 391 -229 869 -406 1295 -478 273
-47 431 -60 709 -60 388 0 661 33 997 121 297 78 524 163 779 290 494 248 911
572 1255 974 33 39 63 72 66 75 11 10 166 216 204 274 61 90 113 168 128 196
8 14 31 54 52 90 65 111 183 359 237 495 194 493 278 938 278 1475 0 366 -31
637 -111 955 -30 117 -80 297 -90 320 -4 11 -33 85 -64 165 -31 80 -75 186
-99 235 -24 50 -47 102 -51 115 -4 14 -11 27 -15 30 -3 3 -29 48 -56 100 -27
52 -52 99 -57 105 -4 5 -48 72 -97 148 -347 532 -810 973 -1345 1282 -182 105
-382 202 -560 271 -236 91 -523 174 -695 199 -25 4 -49 11 -55 15 -5 4 -41 10
-80 13 -38 4 -127 13 -197 21 -127 15 -471 27 -583 20z"/>
</g>
</svg>
